<svg id="Flat" height="512" viewBox="0 0 512 512" width="512" xmlns="http://www.w3.org/2000/svg"><path d="m280 216s-32-16-48-16c-20.1 0-51.9 8.147-72 8-18.11-.132-53.889-8-72-8-16 0-48 16-48 16v-128s32-16 48-16c18.111 0 53.89 7.868 72 8 20.1.147 51.9-8 72-8 16 0 48 16 48 16z" fill="#ffc9c9"/><path d="m280 127.1v16.9h-.01a8.021 8.021 0 0 1 -3.57-.84c-8.44-4.22-32.87-15.16-44.42-15.16-9.32 0-22.03 1.98-34.32 3.89-13.24 2.06-26.91 4.18-37.74 4.11-9.49-.07-22.66-2.01-36.59-4.06-13.16-1.94-26.77-3.94-35.35-3.94-11.55 0-35.98 10.94-44.42 15.16a8.063 8.063 0 0 1 -3.58.84v-16.9c9.35-4.43 33.39-15.1 48-15.1 9.76 0 23.95 2.09 37.68 4.11 12.78 1.88 25.99 3.83 34.38 3.89 9.5.09 22.55-1.96 35.16-3.92 12.89-2.01 26.23-4.08 36.78-4.08 14.61 0 38.65 10.67 48 15.1z" fill="#ed8989"/><path d="m280 159.1v16.9h-.01a8.021 8.021 0 0 1 -3.57-.84c-8.44-4.22-32.87-15.16-44.42-15.16-9.32 0-22.03 1.98-34.32 3.89-13.24 2.06-26.91 4.2-37.74 4.11-9.49-.07-22.66-2.01-36.59-4.06-13.16-1.94-26.77-3.94-35.35-3.94-11.55 0-35.98 10.94-44.42 15.16a8.063 8.063 0 0 1 -3.58.84v-16.9c9.35-4.43 33.39-15.1 48-15.1 9.76 0 23.95 2.09 37.68 4.11 12.78 1.88 25.99 3.83 34.38 3.89 9.5.09 22.55-1.96 35.16-3.92 12.89-2.01 26.23-4.08 36.78-4.08 14.61 0 38.65 10.67 48 15.1z" fill="#ed6f6d"/><path d="m488 288c0 56-46.979 88-125.277 88-114.723 0-140.936 0-203.574-16-20.976-5.358-39.149-17.909-39.149-40v-32l368-56z" fill="#ed6f6d"/><path d="m378.383 120q-1.455 0-2.9.039c-99.175 1.661-114.848 88.192-145.866 111.961-22.585 17.307-62.638 16-70.468 16-21.621 0-39.149 17.909-39.149 40s18.173 34.642 39.149 40c62.638 16 109.617 16 203.574 16 78.298 0 125.277-50.144 125.277-112s-49.077-112-109.617-112z" fill="#ff9494"/><circle cx="392" cy="232" fill="#ffc9c9" r="48"/><path d="m43.945 400-15.545 20.686a16.754 16.754 0 0 0 0 22.628 14.369 14.369 0 0 0 21.233 0l24.339-27.314h46.028v-32h-46.028l-24.342-27.314a14.369 14.369 0 0 0 -21.233 0 16.754 16.754 0 0 0 0 22.628z" fill="#ed8989"/><path d="m280 488a88 88 0 0 0 0-176c-56 0-104 48-144 48a40 40 0 0 0 0 80c40 0 88 48 144 48z" fill="#ffc9c9"/></svg>